PathFileType	4	(X/Y/Z)	C:/Users/opensim2020/Desktop/walking_exp_matlab/subject03_walking16_run.trc																																																																																																																																																	
DataRate	CameraRate	NumFrames	NumMarkers	Units	OrigDataRate	OrigDataStartFrame	OrigNumFrames																																																																																																																																													
100	100	8	49	mm	100	223	131																																																																																																																																													
Frame#	Time	RKNE			RTOE			RWRB			LTHI			RELB			RFRM			RUPA			RASI			LTIB			RWRA			RTHI			LSHO			LTOE			RTIB			LWRA			CLAV			LASI			RSHO			RFHD			STRN			LHEE			RFIN			RBHD			LFRM			C7			LWRB			LFIN			LUPA			LBHD			LELB			RANK			RHEE			RBAK			LPSI			T10			LFHD			RPSI			LKNE			LANK			*39			*40			*41			*42			*43			*44			*45			*46			*47			*48		
		X1	Y1	Z1	X2	Y2	Z2	X3	Y3	Z3	X4	Y4	Z4	X5	Y5	Z5	X6	Y6	Z6	X7	Y7	Z7	X8	Y8	Z8	X9	Y9	Z9	X10	Y10	Z10	X11	Y11	Z11	X12	Y12	Z12	X13	Y13	Z13	X14	Y14	Z14	X15	Y15	Z15	X16	Y16	Z16	X17	Y17	Z17	X18	Y18	Z18	X19	Y19	Z19	X20	Y20	Z20	X21	Y21	Z21	X22	Y22	Z22	X23	Y23	Z23	X24	Y24	Z24	X25	Y25	Z25	X26	Y26	Z26	X27	Y27	Z27	X28	Y28	Z28	X29	Y29	Z29	X30	Y30	Z30	X31	Y31	Z31	X32	Y32	Z32	X33	Y33	Z33	X34	Y34	Z34	X35	Y35	Z35	X36	Y36	Z36	X37	Y37	Z37	X38	Y38	Z38	X39	Y39	Z39	X40	Y40	Z40	X41	Y41	Z41	X42	Y42	Z42	X43	Y43	Z43	X44	Y44	Z44	X45	Y45	Z45	X46	Y46	Z46	X47	Y47	Z47	X48	Y48	Z48	X49	Y49	Z49
																																																																																																																																																				
33	0.32	-490.7605	453.86929	359.72672	-789.90533	121.02097	343.00369	-653.42169	860.48962	472.73486	-690.88092	580.27405	81.17685	-774.56805	1048.57642	498.11356	-704.63885	941.06079	484.98447	-754.50476	1142.82654	469.31693	-640.75079	870.1767	352.36087	-778.21576	240.2133	140.95433	-632.82465	892.33344	433.90356	-599.36072	598.95782	396.31924	-626.02386	1307.93689	59.48313	-758.64697	31.90183	225.77348	-637.30383	353.52301	373.42249	-477.08292	899.79016	109.96955	-585.97614	1270.92383	215.82034	-657.63031	875.72852	116.8644	-647.75696	1314.87244	368.46545	-631.71143	1569.45935	282.42941	-564.47394	1098.1073	218.64381	-950.26166	53.20663	233.40126	-587.53625	840.63733	466.56696	-729.35681	1483.12439	265.04242	-531.15405	961.06415	14.54927	-709.0907	1353.66821	198.35904	-449.93079	897.67578	58.30606	-430.60254	814.54504	95.08083	-632.83295	1129.18945	-33.28203	-706.7547	1479.52844	136.23105	-616.16675	1018.69928	-45.29645	-831.21777	254.96577	352.57886	-889.03131	270.93158	304.61765	-781.35541	1199.625	298.29724	-812.45496	916.56702	179.44307	-783.04688	1058.91797	236.18082	-604.55963	1566.49402	151.33192	-798.08368	915.80627	327.51331	-662.22156	403.92526	124.49399	-896.75574	73.17275	197.13951	NaN	NaN	NaN	NaN	NaN	NaN	NaN	NaN	NaN	NaN	NaN	NaN	NaN	NaN	NaN	NaN	NaN	NaN	NaN	NaN	NaN	-712.49615	1591.04712	183.69002	NaN	NaN	NaN	NaN	NaN	NaN
34	0.33	-443.92819	469.46295	359.37659	-713.06775	111.76497	342.01602	-636.79382	868.38251	476.68903	-673.84418	578.93903	82.59922	-757.07483	1057.03528	498.04675	-687.61139	949.49512	487.10818	-733.10455	1150.25342	468.32077	-609.19202	872.51196	351.94943	-773.61444	240.74504	141.04172	-614.60004	900.00085	438.73776	-561.34503	607.15381	395.63165	-593.1051	1312.07568	60.64182	-758.83496	31.78217	225.5686	-582.41656	356.28619	373.01111	-430.09167	922.9787	122.41405	-554.11658	1272.94666	217.58492	-627.22882	874.79803	115.45943	-618.57477	1317.05054	369.18411	-599.68756	1571.98315	282.63547	-532.49341	1100.18262	219.69896	-949.61304	57.60627	231.51485	-570.44702	848.47937	473.89456	-697.23016	1485.45105	266.23181	-487.95419	973.8089	23.26946	-676.98828	1355.68811	199.12134	-403.28583	918.03259	70.7495	-376.00024	841.53033	115.49776	-596.98859	1131.94092	-30.32181	-674.99194	1480.78796	137.42006	-576.03033	1022.40686	-38.81047	-767.41553	240.80774	352.37164	-826.65668	251.55563	304.74857	-750.90015	1202.06091	296.20502	-780.97784	917.87256	179.77861	-750.66876	1060.48096	234.72041	-572.81689	1568.1062	151.54733	-766.08118	918.61707	327.7554	-652.6944	401.62631	125.91089	-895.54846	76.05226	195.69185	NaN	NaN	NaN	NaN	NaN	NaN	NaN	NaN	NaN	NaN	NaN	NaN	NaN	NaN	NaN	NaN	NaN	NaN	NaN	NaN	NaN	-680.85175	1592.69397	183.93919	NaN	NaN	NaN	NaN	NaN	NaN
35	0.34	-399.96548	485.30997	358.83636	-635.29089	103.21236	340.61688	-618.73578	877.82788	479.82095	-656.02997	579.71027	83.6933	-738.12012	1066.96252	496.64447	-669.19513	959.56348	488.33484	-709.90967	1158.56226	467.04538	-577.01556	875.71417	351.48309	-768.87061	242.99838	141.12981	-595.43127	909.01154	442.43222	-523.74396	616.17297	395.08142	-559.99994	1317.01855	62.13329	-758.92847	31.68205	225.47061	-528.99078	359.05725	372.47583	-386.26126	948.36407	133.97083	-522.08234	1276.25452	219.52434	-595.98633	875.93152	115.17133	-589.77991	1320.95007	369.81943	-567.45471	1575.63574	283.34314	-499.9328	1103.5752	221.20192	-948.99988	64.86463	229.715	-552.51483	857.74078	479.90079	-665.02161	1488.88477	267.6113	-446.5184	987.97192	31.65688	-645.06873	1358.51453	199.80156	-359.45953	939.97028	82.78393	-324.55832	872.63898	135.53275	-561.24744	1135.72498	-27.15956	-643.17639	1483.45532	138.80157	-536.69696	1027.39941	-32.55547	-702.23541	226.06824	351.39569	-762.18707	231.14566	303.73468	-720.08807	1205.18164	294.43945	-748.77393	920.15308	180.17046	-717.83051	1062.86438	233.0024	-541.31219	1570.65918	152.27948	-733.58307	922.47162	327.79153	-643.82275	401.29114	126.8855	-894.0423	80.9683	194.2363	NaN	NaN	NaN	NaN	NaN	NaN	NaN	NaN	NaN	NaN	NaN	NaN	NaN	NaN	NaN	NaN	NaN	NaN	NaN	NaN	NaN	-649.1109	1595.59656	184.57957	NaN	NaN	NaN	NaN	NaN	NaN
36	0.35	-358.3006	500.56107	358.65909	-556.03271	96.03997	338.96445	-599.69348	888.14331	482.15054	-636.51563	581.94647	84.83005	-717.18256	1077.98022	494.64261	-649.66754	970.65875	488.72223	-685.08478	1167.36841	465.5282	-543.86133	880.64136	351.04901	-763.62549	247.55545	140.95374	-575.46411	918.95099	445.78659	-486.35986	625.8266	394.82574	-526.62	1322.49268	63.99229	-758.96625	31.42654	225.05403	-476.60776	361.12811	371.98495	-345.65024	975.33606	144.73586	-489.95026	1280.64856	221.43779	-563.81281	878.28009	114.46545	-560.4729	1325.92871	370.09143	-535.28406	1580.03674	284.18188	-466.91022	1108.07373	223.10217	-946.29053	73.7217	228.21655	-533.57861	867.76892	484.70972	-632.44537	1493.35278	269.04047	-406.84705	1003.12561	39.64771	-613.19507	1362.08228	200.35587	-318.29153	963.41412	94.63147	-277.00583	907.07855	154.77066	-524.7948	1140.44617	-23.93823	-611.36749	1487.35608	140.25922	-497.83188	1033.45251	-26.93702	-635.51624	210.85962	350.05148	-695.90967	210.78883	302.2851	-688.99658	1209.02966	292.65497	-715.74854	923.4621	180.42868	-684.6593	1065.96423	231.1214	-509.27457	1574.86292	153.13411	-700.85242	927.48224	327.54971	-635.1272	403.20667	127.24918	-891.25977	87.4792	192.784	NaN	NaN	NaN	NaN	NaN	NaN	NaN	NaN	NaN	NaN	NaN	NaN	NaN	NaN	NaN	NaN	NaN	NaN	NaN	NaN	NaN	-617.17444	1599.71545	185.67361	NaN	NaN	NaN	NaN	NaN	NaN
37	0.36	-319.37384	514.34277	358.51727	-477.30325	88.85067	334.93817	-579.61066	898.77313	483.75827	-615.30023	585.70557	85.59798	-695.01093	1089.68213	492.10446	-628.9353	982.10406	488.58267	-659.23944	1176.6261	463.87997	-508.09106	886.83093	351.96045	-757.09406	254.79706	140.41565	-553.11841	929.37946	448.32208	-449.19037	635.90729	394.81787	-493.19501	1328.72412	65.82555	-758.66083	31.0403	224.9265	-424.79605	362.04871	371.71768	-308.32278	1003.29169	154.45856	-457.6915	1285.92798	223.52702	-530.78278	881.28296	114.11434	-530.50916	1331.76758	370.26428	-502.81195	1585.01245	285.52078	-433.52484	1113.41406	225.51474	-941.83197	85.33521	226.91016	-513.76013	877.87061	488.32538	-600.6076	1498.49548	270.64172	-368.88147	1019.25665	47.24662	-581.32104	1366.31055	200.74261	-279.87656	987.85236	106.21606	-234.10942	943.75854	172.66084	-487.6189	1146.13184	-20.58621	-579.46521	1492.47791	141.78201	-459.07291	1040.72192	-22.1501	-567.57831	196.03487	348.33505	-627.87616	191.07687	300.76605	-657.52411	1213.6427	290.85141	-681.9118	927.69354	180.39619	-651.22144	1069.77808	229.0661	-477.32663	1579.47302	154.425	-667.76672	933.14215	327.03906	-625.42554	407.62979	127.16408	-887.02356	96.20261	191.37842	NaN	NaN	NaN	NaN	NaN	NaN	NaN	NaN	NaN	NaN	NaN	NaN	NaN	NaN	NaN	NaN	NaN	NaN	NaN	NaN	NaN	-584.99799	1604.91541	187.18886	NaN	NaN	NaN	NaN	NaN	NaN
38	0.37	-282.8541	525.90302	358.2908	-399.75296	81.83707	329.93997	-558.29718	909.44849	484.5914	-592.6394	591.19128	85.94318	-671.59833	1101.42236	489.48026	-606.96765	993.54144	487.94308	-632.64355	1186.51343	462.14349	-476.38522	893.21503	349.96085	-748.87488	264.44144	139.50256	-530.79047	939.6405	449.74237	-412.41229	646.20526	395.02988	-459.56918	1335.36755	67.88568	-757.62317	31.03853	224.87344	-373.48877	361.8642	371.48373	-274.07773	1031.7644	163.18744	-425.28732	1291.86401	225.59813	-496.39508	884.61066	114.48019	-500.01321	1338.19653	370.62308	-470.2822	1590.52356	286.94949	-399.95105	1119.46606	228.14761	-935.20056	99.5778	226.00241	-492.7486	887.86499	491.09695	-568.04089	1504.40247	272.08957	-332.28488	1036.36694	54.21135	-549.31409	1371.18689	201.11729	-243.99892	1013.354	117.23227	-196.56543	980.82336	189.06206	-449.83902	1152.69421	-17.1515	-547.51642	1498.46252	143.21115	-420.47928	1048.81567	-17.88963	-498.50479	181.80176	346.20737	-558.03375	172.36313	299.11276	-625.68085	1219.14075	289.18109	-647.3186	932.73248	180.0936	-617.55432	1074.28186	226.93787	-445.02487	1585.21716	155.80582	-634.16223	939.51245	326.31207	-613.43549	414.35446	126.69396	-880.92285	107.31779	190.04483	NaN	NaN	NaN	NaN	NaN	NaN	NaN	NaN	NaN	NaN	NaN	NaN	NaN	NaN	NaN	NaN	NaN	NaN	NaN	NaN	NaN	-552.55078	1611.06445	188.85446	NaN	NaN	NaN	NaN	NaN	NaN
39	0.38	-248.23009	535.06989	357.77725	-321.9071	75.53461	324.48941	-535.81561	919.94873	484.67123	-568.93951	598.07605	85.92719	-647.08289	1113.11487	486.75812	-583.7157	1004.71216	486.89096	-605.49567	1196.74402	460.33713	-441.92624	900.84857	349.55063	-738.59418	275.94055	138.17763	-507.56967	949.81824	450.89346	-376.42538	656.2821	395.28815	-425.88455	1342.40027	70.07281	-756.37427	30.99385	224.76163	-323.22961	361.0249	371.01929	-242.22275	1060.12073	170.65523	-392.75778	1298.2345	227.59851	-460.57245	888.15979	115.43166	-469.02084	1344.90186	371.09625	-437.83685	1596.46887	288.31549	-366.33423	1126.22302	230.9653	-925.54596	115.41685	225.07924	-470.54892	897.40765	492.9122	-536.01001	1510.75745	273.59204	-297.09772	1053.95764	60.55988	-517.18622	1376.58472	201.54405	-210.40645	1038.94739	127.94005	-162.54071	1017.97375	203.28479	-411.96863	1159.96545	-13.77529	-515.5448	1505.08386	144.67409	-382.58118	1057.41406	-14.3206	-428.82288	168.48851	343.99783	-486.64905	155.00755	296.49063	-593.60223	1225.38684	287.69171	-611.9823	938.31311	179.58095	-583.57928	1079.33093	225.06685	-412.70963	1591.11206	157.78357	-600.09265	946.29932	325.37738	-599.00269	422.56894	125.8381	-872.39117	120.39624	188.75218	NaN	NaN	NaN	NaN	NaN	NaN	NaN	NaN	NaN	NaN	NaN	NaN	NaN	NaN	NaN	NaN	NaN	NaN	NaN	NaN	NaN	-519.88971	1617.65894	190.73421	NaN	NaN	NaN	NaN	NaN	NaN
40	0.39	-215.21454	542.17944	356.98029	-245.19937	69.40257	319.04398	-512.03522	929.77521	484.00607	-543.83728	606.0636	85.75888	-621.52802	1124.42664	484.09592	-559.14886	1015.49377	485.68109	-577.62518	1207.19214	458.59628	-406.98236	908.86517	349.06961	-725.95221	288.47708	136.85817	-482.349	959.63995	451.14529	-341.32022	665.62128	395.64502	-392.23029	1349.81152	72.48992	-755.02197	31.06219	224.42503	-274.55234	359.63367	370.10248	-212.53003	1087.45703	176.45738	-360.1626	1304.92981	229.64479	-423.95364	892.37231	116.43005	-437.46799	1351.73462	371.85818	-405.26465	1602.73706	289.69705	-332.91599	1133.02808	233.48964	-911.7229	132.30435	223.89438	-447.1272	906.41205	493.93887	-503.68692	1517.48535	275.0246	-263.12311	1071.49255	65.93682	-484.69724	1382.45715	202.14326	-178.84145	1063.8866	137.24928	-132.10501	1053.69922	215.46883	-374.1666	1167.96008	-10.60261	-483.40109	1512.00879	146.11688	-344.94019	1066.51428	-11.69966	-358.74268	156.54356	341.44339	-414.35928	139.77783	293.31525	-561.1861	1232.00928	286.50391	-575.95892	944.3299	178.86763	-549.46686	1084.77808	223.45695	-380.29388	1597.65125	159.22464	-565.47339	953.26483	324.18903	-582.13593	431.7413	124.74323	-861.23737	134.42662	187.45766	NaN	NaN	NaN	NaN	NaN	NaN	NaN	NaN	NaN	NaN	NaN	NaN	NaN	NaN	NaN	NaN	NaN	NaN	NaN	NaN	NaN	-487.16547	1624.63232	192.43613	NaN	NaN	NaN	NaN	NaN	NaN
